<?xml version="1.0" encoding="UTF-8" standalone="no"?>
<!-- Created with Inkscape (http://www.inkscape.org/) -->

<svg
   xmlns:dc="http://purl.org/dc/elements/1.1/"
   xmlns:cc="http://creativecommons.org/ns#"
   xmlns:rdf="http://www.w3.org/1999/02/22-rdf-syntax-ns#"
   xmlns:svg="http://www.w3.org/2000/svg"
   xmlns="http://www.w3.org/2000/svg"
   xmlns:sodipodi="http://sodipodi.sourceforge.net/DTD/sodipodi-0.dtd"
   xmlns:inkscape="http://www.inkscape.org/namespaces/inkscape"
   width="320mm"
   height="320mm"
   viewBox="0 0 1133.8583 1133.8583"
   id="svg4184"
   version="1.1"
   inkscape:version="0.91 r13725"
   sodipodi:docname="cartoongoldfish1922.svg">
  <defs
     id="defs4186" />
  <sodipodi:namedview
     id="base"
     pagecolor="#ffffff"
     bordercolor="#666666"
     borderopacity="1.0"
     inkscape:pageopacity="0.0"
     inkscape:pageshadow="2"
     inkscape:zoom="0.19957557"
     inkscape:cx="1443.5998"
     inkscape:cy="1408.713"
     inkscape:document-units="px"
     inkscape:current-layer="layer1"
     showgrid="false"
     fit-margin-top="0"
     fit-margin-left="0"
     fit-margin-right="0"
     fit-margin-bottom="0"
     inkscape:window-width="1916"
     inkscape:window-height="1035"
     inkscape:window-x="6"
     inkscape:window-y="0"
     inkscape:window-maximized="0" />
  <metadata
     id="metadata4189">
    <rdf:RDF>
      <cc:Work
         rdf:about="">
        <dc:format>image/svg+xml</dc:format>
        <dc:type
           rdf:resource="http://purl.org/dc/dcmitype/StillImage" />
        <dc:title></dc:title>
        <dc:creator>
          <cc:Agent>
            <dc:title>j4p4n</dc:title>
          </cc:Agent>
        </dc:creator>
        <cc:license
           rdf:resource="http://creativecommons.org/publicdomain/zero/1.0/" />
      </cc:Work>
      <cc:License
         rdf:about="http://creativecommons.org/publicdomain/zero/1.0/">
        <cc:permits
           rdf:resource="http://creativecommons.org/ns#Reproduction" />
        <cc:permits
           rdf:resource="http://creativecommons.org/ns#Distribution" />
        <cc:permits
           rdf:resource="http://creativecommons.org/ns#DerivativeWorks" />
      </cc:License>
    </rdf:RDF>
  </metadata>
  <g
     inkscape:label="Layer 1"
     inkscape:groupmode="layer"
     id="layer1"
     transform="translate(1884.6435,-471.33652)">
    <path
       style="fill:#000000"
       d="m -937.27222,1449.3643 c -0.33843,-0.5476 -5.05248,-0.8732 -10.83902,-0.7485 -5.63207,0.1213 -11.90785,-0.1373 -13.9462,-0.5747 -2.03834,-0.4374 -6.08834,-0.9981 -9,-1.2461 -5.75319,-0.4899 -18.28533,-2.1784 -23.65473,-3.187 -2.2363,-0.4201 -3.6245,-0.2046 -4.149,0.6442 -0.4336,0.7015 -1.39633,1.0422 -2.13933,0.757 -0.743,-0.2851 -1.8009,-0.6507 -2.3509,-0.8125 -0.55,-0.1618 -3.151,-1.3746 -5.7801,-2.6951 -2.6291,-1.3205 -6.4541,-2.6313 -8.5,-2.9129 -2.0459,-0.2816 -4.6199,-0.8885 -5.7199,-1.3488 -1.1,-0.4602 -2.9,-1.0697 -4,-1.3545 -1.1,-0.2848 -3.8,-1.2026 -6,-2.0396 -2.2,-0.837 -5.4686,-1.5416 -7.2636,-1.5657 -1.7949,-0.024 -4.0449,-0.4571 -5,-0.9621 -5.7969,-3.0655 -18.0956,-8.9048 -20.0783,-9.5329 -1.288,-0.4081 -5.9374,-2.9258 -10.3319,-5.5949 -4.3945,-2.6692 -9.4884,-5.3475 -11.3197,-5.9519 -1.8313,-0.6043 -3.5631,-1.7072 -3.8484,-2.4508 -0.2854,-0.7436 -3.0895,-3.0583 -6.2315,-5.1438 -3.142,-2.0855 -8.8399,-6.9377 -12.6619,-10.7826 -6.103,-6.1394 -7.1799,-6.8467 -8.8434,-5.8078 -1.0418,0.6506 -2.6913,1.1829 -3.6657,1.1829 -0.9743,0 -3.8848,1.125 -6.4677,2.5 -2.583,1.375 -6.2368,2.5 -8.1196,2.5 -1.8829,0 -3.943,0.6261 -4.5781,1.3913 -0.635,0.7652 -3.2717,1.7088 -5.8592,2.0968 -2.5876,0.388 -6.0606,1.439 -7.7178,2.3355 -1.6573,0.8965 -4.1382,1.6404 -5.5132,1.6532 -1.6288,0.015 -2.3932,0.5178 -2.1936,1.4425 0.2332,1.08 -0.014,1.1533 -1.0342,0.3066 -1.2945,-1.0744 -7.1095,-0.3716 -9.5851,1.1585 -0.5769,0.3565 -1.3316,0.1909 -1.677,-0.3681 -1.0208,-1.6517 -5.1575,-1.168 -9.5384,1.1155 -3.7941,1.9776 -8.3907,2.8543 -16.887,3.2209 -1.8784,0.081 -3.579,0.6365 -3.779,1.2344 -0.2355,0.7037 -1.9277,0.8497 -4.7987,0.414 -2.4393,-0.3702 -4.8279,-0.2802 -5.3082,0.2001 -0.4975,0.4975 -2.0254,0.435 -3.5518,-0.1453 -2.4602,-0.9354 -7.9781,-1.6394 -21.147,-2.6981 -2.75,-0.2211 -10.625,-0.5704 -17.5,-0.7761 -6.875,-0.2058 -14.975,-0.6469 -18,-0.9803 -16.9788,-1.871 -30.3108,-4.0982 -41.4737,-6.9283 -3.2856,-0.833 -6.3127,-1.3051 -6.727,-1.0491 -0.4142,0.256 -2.451,0.014 -4.5262,-0.5368 -2.0752,-0.5513 -6.0231,-1.2405 -8.7731,-1.5315 -2.75,-0.291 -6.3525,-0.795 -8.0056,-1.12 -2.3972,-0.4713 -5.4305,0.6541 -14.9856,5.5598 -6.589,3.3829 -12.4779,6.5639 -13.0864,7.0689 -0.6085,0.5051 -1.3718,0.6529 -1.6961,0.3286 -0.3243,-0.3244 -2.9829,0.3203 -5.908,1.4326 -2.9251,1.1123 -7.5683,2.7918 -10.3183,3.7321 -2.75,0.9404 -6.35,2.2922 -8,3.004 -1.65,0.7119 -4.8,1.8391 -7,2.5049 -2.2,0.6658 -4.9,1.5506 -6,1.9662 -8.112,3.065 -11.4211,3.9347 -12.8637,3.3811 -0.914,-0.3507 -2.2185,-0.2189 -2.899,0.2929 -0.6805,0.5117 -2.5359,1.0121 -4.1232,1.1119 -3.1738,0.1995 -11.6154,1.6294 -18.6141,3.153 -2.475,0.5388 -7.7002,1.1505 -11.6116,1.3594 -3.9113,0.2089 -7.6713,0.7257 -8.3555,1.1486 -0.6843,0.4229 -5.8091,0.8993 -11.3885,1.0588 -5.5794,0.1594 -11.9444,0.5944 -14.1444,0.9665 -6.6408,1.1234 -19.0337,0.6183 -21.9497,-0.8945 -1.6522,-0.8572 -4.227,-1.1953 -6.639,-0.8718 -2.167,0.2907 -6.5211,0.01 -9.6757,-0.6292 -3.1546,-0.6367 -11.8106,-1.3467 -19.2356,-1.5777 -7.425,-0.2311 -15.075,-0.9411 -17,-1.5779 -1.925,-0.6367 -5.3,-1.5213 -7.5,-1.9657 -7.9936,-1.6147 -31.7762,-10.9283 -38.5,-15.0771 -0.825,-0.5091 -2.625,-1.4644 -4,-2.1228 -8.024,-3.8426 -10.6985,-11.7062 -5.6586,-16.6371 7.1119,-6.958 7.9331,-7.3876 12.6586,-6.6221 2.475,0.401 12.15,0.7387 21.5,0.7506 18.8821,0.024 30.3105,-1.3861 49,-6.046 6.6,-1.6456 14.7,-3.5361 18,-4.2011 3.3,-0.6651 6.8219,-1.6447 7.8264,-2.177 1.0045,-0.5324 4.1545,-1.2125 7,-1.5115 5.0199,-0.5275 10.2875,-1.9874 25.4659,-7.0579 11.6209,-3.8821 16.364,-6.2436 16.017,-7.9747 -0.1701,-0.8484 -3.2343,-2.7454 -6.8093,-4.2156 -7.1085,-2.9233 -10.3416,-4.6934 -18.8596,-10.3251 -3.1022,-2.051 -8.2992,-5.426 -11.5488,-7.5 -3.2497,-2.0739 -8.9403,-6.6958 -12.6459,-10.2708 -3.7056,-3.575 -8.026,-7.625 -9.6009,-9 -5.2113,-4.5498 -24.5951,-25.4051 -28.8128,-31 -2.2804,-3.025 -6.2098,-7.5811 -8.7319,-10.1247 -2.5222,-2.5436 -4.9105,-5.6936 -5.3075,-7 -0.3969,-1.3064 -2.4018,-4.6279 -4.4552,-7.3812 -2.0535,-2.7532 -4.434,-6.3532 -5.2902,-8 -0.8561,-1.6467 -2.7245,-4.0036 -4.1519,-5.2375 -1.4274,-1.2338 -2.5953,-2.7494 -2.5953,-3.368 0,-0.6185 -1.35,-2.6621 -3,-4.5414 -1.65,-1.8792 -3,-3.8639 -3,-4.4105 0,-0.5465 -2.475,-4.6076 -5.5,-9.0246 -3.025,-4.4169 -5.5,-8.7962 -5.5,-9.7317 0,-0.9355 -1.125,-2.9141 -2.5,-4.397 -1.375,-1.4828 -2.5,-3.2358 -2.5,-3.8954 0,-0.6595 -1.125,-2.6742 -2.5,-4.4769 -1.375,-1.8027 -2.5,-3.967 -2.5,-4.8096 0,-0.8425 -1.2926,-3.0101 -2.8725,-4.8167 -1.5799,-1.8066 -3.1824,-4.7097 -3.5611,-6.4513 -0.3787,-1.7415 -1.3646,-3.4258 -2.1909,-3.7429 -0.8262,-0.3171 -1.2186,-1.0355 -0.8719,-1.5965 0.7562,-1.2235 -3.0715,-11.8456 -5.0653,-14.0567 -0.775,-0.8594 -2.1223,-5.3594 -2.994,-10 -0.8718,-4.6405 -2.1572,-9.3374 -2.8567,-10.4374 -0.6994,-1.1 -1.5596,-4.1409 -1.9116,-6.7575 -0.3519,-2.6167 -1.3617,-5.8594 -2.2441,-7.206 -0.8824,-1.3467 -1.2903,-2.9566 -0.9065,-3.5776 0.3838,-0.621 0.021,-2.5533 -0.8071,-4.294 -2.7545,-5.7928 -5.885,-17.7639 -5.8823,-22.4945 0,-4.2572 -0.4006,-5.0463 -4.5555,-8.9204 -2.507,-2.3375 -4.9932,-4.25 -5.525,-4.25 -0.5317,0 -2.3321,-1.1488 -4.0008,-2.5529 -1.6686,-1.4041 -4.311,-2.8083 -5.8719,-3.1205 -1.5609,-0.3122 -3.3531,-1.1884 -3.9828,-1.9471 -0.6297,-0.7587 -1.9898,-1.3795 -3.0224,-1.3795 -1.0327,0 -1.8776,-0.45 -1.8776,-1 0,-0.55 -0.9223,-1 -2.0497,-1 -2.0301,0 -7.987,-2.6408 -8.9503,-3.9678 -0.7662,-1.0555 -7.1379,-4.0322 -8.6311,-4.0322 -0.7281,0 -3.7776,-1.3275 -6.7768,-2.9501 -4.391,-2.3756 -6.0246,-2.7862 -8.3886,-2.1082 -1.6346,0.4688 -3.549,0.4535 -4.3196,-0.034 -0.7611,-0.4821 -2.9814,-0.8834 -4.9339,-0.8918 -1.9525,-0.01 -4.0437,-0.509 -4.647,-1.1124 -0.6034,-0.6033 -5.5271,-1.2825 -10.9416,-1.5092 -5.4144,-0.2268 -10.5233,-0.619 -11.3529,-0.8718 -3.5171,-1.0714 -16.1897,-0.6062 -25.0085,0.9181 -12.9637,2.2406 -14.8199,2.5191 -20,3.0004 -7.0511,0.6552 -11.9687,1.6999 -12.5683,2.6701 -0.3023,0.4892 -2.3293,0.8894 -4.5043,0.8894 -2.175,0 -4.8484,0.45 -5.941,1 -1.0925,0.55 -2.9277,1.4796 -4.0781,2.0658 -1.6717,0.8517 -2.3681,0.7011 -3.4682,-0.75 -2.1205,-2.7971 -1.7228,-4.9982 1.8099,-10.0174 3.041,-4.3206 5.9843,-7.4759 16.4918,-17.6793 2.333,-2.2655 4.2455,-4.9066 4.25,-5.8691 0.01,-0.9625 0.6526,-1.75 1.4401,-1.75 0.7876,0 2.3924,-1.3489 3.5664,-2.9976 1.174,-1.6487 3.3421,-3.2831 4.8181,-3.632 1.476,-0.349 5.2356,-2.8251 8.3547,-5.5024 3.119,-2.6774 6.1407,-4.868 6.7148,-4.868 0.574,0 1.5254,-0.9 2.1141,-2 0.5887,-1.1 1.7072,-2 2.4855,-2 0.7783,0 1.775,-0.5625 2.2148,-1.25 1.0093,-1.5776 6.9136,-5.75 8.1368,-5.75 0.5049,0 1.4782,-0.675 2.1629,-1.5 0.6847,-0.825 1.9109,-1.5 2.7249,-1.5 0.814,0 5.8214,-2.84939 11.1275,-6.33203 5.3062,-3.48264 11.2226,-6.93175 13.1476,-7.66469 1.925,-0.73295 4.175,-1.8388 5,-2.45745 2.7003,-2.02489 9.1171,-4.59145 10.0453,-4.01783 0.8982,0.55513 14.8471,-5.56363 14.8817,-6.52796 0.01,-0.275 -1.5997,-1.625 -3.5768,-3 -1.9771,-1.375 -4.4624,-3.4 -5.5229,-4.5 -5.8507,-6.06856 -9.5973,-10.45824 -10.1456,-11.88702 -0.3404,-0.88714 -1.308,-1.61298 -2.1503,-1.61298 -0.8822,0 -1.5314,-0.87789 -1.5314,-2.07081 0,-2.23126 -8.5801,-14.92919 -10.0878,-14.92919 -0.5017,0 -0.9122,-1.33473 -0.9122,-2.96607 0,-1.63134 -0.7374,-4.66884 -1.6386,-6.75 -0.9012,-2.08116 -1.9804,-4.68393 -2.398,-5.78393 -0.4177,-1.1 -1.5292,-3.74601 -2.4701,-5.88002 -1.7754,-4.02723 -2.0148,-5.23842 -2.9527,-14.94149 -0.3094,-3.20183 -0.9797,-7.6776 -1.4894,-9.94617 -0.5097,-2.26856 -0.6983,-4.49427 -0.4191,-4.94602 0.7355,-1.19011 -1.5899,-15.855 -2.9652,-18.69994 -0.9089,-1.87994 -0.8905,-2.50643 0.083,-2.83333 0.6875,-0.23083 1.25,-1.22724 1.25,-2.21424 0,-0.987 0.6994,-3.46866 1.5544,-5.5148 0.8549,-2.04615 1.3938,-4.4636 1.1975,-5.37213 -0.1963,-0.90852 0.7135,-3.38474 2.0218,-5.5027 1.3083,-2.11796 2.748,-5.94296 3.1994,-8.5 0.8561,-4.84971 2.6725,-10.582 4.1666,-13.14916 1.1799,-2.02736 1.3939,-2.55867 3.9268,-9.75 1.2108,-3.4375 2.7439,-6.25 3.4069,-6.25 0.6631,0 1.6724,-1.02469 2.243,-2.2771 1.9099,-4.19161 6.4149,-8.7229 8.6724,-8.7229 5.0316,0 5.9336,5.13739 2.6261,14.95569 -1.712,5.0818 -1.8537,6.90059 -1.0299,13.21845 1.4092,10.80898 4.632,19.82586 7.0859,19.82586 0.624,0 0.7646,1.35993 0.3623,3.5042 -0.6229,3.32007 -0.463,3.58542 3.0424,5.05009 2.1338,0.89156 3.4997,2.0676 3.2269,2.77845 -0.625,1.62878 2.0871,4.80036 5.7015,6.66726 1.5972,0.825 3.8193,2.7375 4.938,4.25 1.1187,1.5125 2.5547,2.75 3.191,2.75 0.6364,0 1.9715,0.9 2.967,2 0.9954,1.1 2.3897,2 3.0982,2 0.7086,0 1.8764,0.78774 2.5951,1.75053 3.7891,5.07609 15.1145,10.77596 18.096,9.10741 0.9409,-0.52653 1.7626,-0.59746 1.826,-0.15763 0.063,0.43983 0.1759,1.46905 0.25,2.28715 0.1836,2.0285 6.6111,4.9911 9.3923,4.32919 1.2417,-0.29551 3.9417,0.27311 6,1.26361 2.0583,0.9905 5.9924,2.16929 8.7424,2.61954 8.9228,1.46089 9.5792,1.62105 10.8014,2.63545 1.5712,1.30393 16.5261,0.6237 27.9264,-1.27025 7.7997,-1.29579 17.7721,-5.5551 17.7721,-7.59068 0,-0.53588 0.655,-0.97432 1.4556,-0.97432 3.3648,0 19.1208,-13.8478 20.8331,-18.30999 0.3567,-0.92951 1.0964,-1.69001 1.6438,-1.69001 1.4022,0 9.0122,-8.23114 9.0425,-9.78055 0.014,-0.7043 1.6,-2.66342 3.525,-4.35359 1.925,-1.69018 3.5,-3.66393 3.5,-4.38612 0,-0.72219 0.3452,-1.46307 0.7671,-1.64641 0.9373,-0.40726 8.2329,-9.32929 8.2329,-10.06823 0,-0.2909 1.9921,-2.69857 4.4269,-5.35037 2.4347,-2.6518 4.6961,-6.19245 5.0252,-7.8681 0.4555,-2.31914 1.5477,-3.48427 4.574,-4.87941 2.1866,-1.00803 5.5524,-3.75692 7.4794,-6.10864 1.9271,-2.35172 7.7767,-7.79152 12.9991,-12.08843 5.2225,-4.29691 9.4954,-8.08319 9.4954,-8.41395 0,-0.33077 1.6875,-1.4844 3.75,-2.56363 2.0625,-1.07924 5.775,-3.32327 8.25,-4.98675 2.475,-1.66348 5.85,-3.63495 7.5,-4.38105 1.65,-0.7461 3.675,-1.75726 4.5,-2.24702 0.825,-0.48977 2.175,-1.14893 3,-1.46482 4.1467,-1.58774 10.0215,-4.63864 10.5364,-5.47177 0.3199,-0.51764 1.3727,-0.94116 2.3396,-0.94116 0.9669,0 4.3977,-1.35 7.624,-3 3.2263,-1.65 6.6571,-3 7.624,-3 0.9669,0 2.0361,-0.45 2.376,-1 0.3399,-0.55 1.4364,-1 2.4366,-1 1.0002,0 2.3787,-0.675 3.0634,-1.5 0.6847,-0.825 2.2882,-1.5 3.5634,-1.5 1.2752,0 2.5967,-0.45 2.9366,-1 0.3399,-0.55 1.3305,-1 2.2012,-1 2.7787,0 15.1672,-4.0115 16.5074,-5.3452 0.7103,-0.70684 4.8914,-1.85557 9.2914,-2.55272 4.4,-0.69714 9.4625,-1.50454 11.25,-1.79421 1.7875,-0.28968 3.25,-0.91714 3.25,-1.39436 0,-0.47722 1.6875,-0.81842 3.75,-0.75823 2.0625,0.0602 7.575,-0.63959 12.25,-1.55507 18.1185,-3.54808 27.9723,-4.77082 40.2653,-4.99643 7.7621,-0.14246 13.2032,-0.67227 13.8827,-1.35181 1.6299,-1.62991 0.2587,-4.25197 -2.2236,-4.25197 -1.3386,0 -1.9527,-0.48396 -1.6419,-1.2939 0.2731,-0.71165 -0.2946,-2.92045 -1.2616,-4.90844 -2.2756,-4.67833 -3.1934,-7.80399 -4.6392,-15.79766 -0.3481,-1.925 -0.9998,-3.96398 -1.4481,-4.53106 -0.4483,-0.56708 -1.0298,-2.21511 -1.2922,-3.66229 -0.2624,-1.44717 -0.9953,-3.59946 -1.6287,-4.78286 -0.875,-1.63508 -0.8653,-2.4964 0.04,-3.58771 0.8055,-0.97056 0.8687,-1.84128 0.1951,-2.68608 -0.5483,-0.6875 -1.2359,-2.6 -1.528,-4.25 -0.9596,-5.41936 -3.4195,-10.75843 -6.5955,-14.31469 -1.7185,-1.92433 -3.1246,-4.0328 -3.1246,-4.68551 0,-1.78403 -8.8243,-8.80364 -14.5,-11.53453 -2.75,-1.32319 -6.8,-2.44461 -9,-2.49205 -2.2,-0.0474 -4.8341,-0.5548 -5.8536,-1.12746 -3.8798,-2.17939 2.4837,-7.38429 6.9382,-5.67493 1.157,0.44397 1.5094,0.29023 1.0476,-0.457 -1.1794,-1.90825 9.98,-6.32128 17.0153,-6.72873 3.4399,-0.19923 7.1816,-0.85844 8.3148,-1.46491 1.1332,-0.60647 2.6177,-1.00764 3.299,-0.89149 2.0584,0.35091 11.1018,-1.31243 13.2387,-2.43496 1.1,-0.57784 3.8667,-0.93915 6.1482,-0.80291 2.2815,0.13623 4.4463,-0.23468 4.8107,-0.82427 0.4331,-0.70079 1.2695,-0.7471 2.4156,-0.13373 1.0932,0.58505 3.3377,0.58222 5.9625,-0.008 2.5289,-0.56821 6.4429,-0.59552 9.8044,-0.0684 3.3711,0.52864 7.2373,0.49988 9.7268,-0.0724 4.0984,-0.94206 11.8265,-0.60493 16.6318,0.72553 1.375,0.3807 3.8464,0.93874 5.4921,1.24008 1.6456,0.30134 4.2554,1.48191 5.7994,2.62348 1.7287,1.27807 4.427,2.10603 7.0223,2.15482 5.1377,0.0966 26.7037,10.33198 34.2324,16.24704 2.7246,2.14062 5.7413,4.17771 6.7038,4.52688 0.9625,0.34917 1.7505,1.21147 1.751,1.91624 6e-4,0.70476 2.197,3.57058 4.881,6.3685 2.6839,2.79791 5.1699,6.00107 5.5245,7.11811 0.3545,1.11705 1.5331,2.83509 2.619,3.81787 1.086,0.98278 1.9905,2.72963 2.0099,3.88189 0.019,1.15225 0.6786,3.22001 1.4646,4.59501 0.786,1.375 1.4451,3.50869 1.4646,4.74153 0.02,1.23284 0.9354,2.80358 2.0354,3.49054 1.1,0.68696 2,2.00625 2,2.93175 0,0.9255 1.0679,2.95476 2.3731,4.50945 1.3052,1.5547 2.6987,4.76216 3.0965,7.12768 0.3979,2.36553 1.528,5.06553 2.5113,6 0.9833,0.93448 2.8373,4.17405 4.1199,7.19905 1.2826,3.025 3.1191,6.35565 4.0811,7.40144 0.9619,1.0458 1.5129,2.2833 1.2245,2.75 -0.2884,0.46671 0.07,0.84856 0.7975,0.84856 0.727,0 1.7661,0.86958 2.309,1.9324 4.6741,9.1501 6.9737,12.88488 7.669,12.45519 0.45,-0.27809 0.8181,0.0482 0.8181,0.72499 0,0.67683 2.5071,3.74089 5.5713,6.80902 8.2421,8.25264 9.4287,9.56811 9.4287,10.45222 0,0.44191 2.025,3.11836 4.5,5.94765 2.475,2.8293 4.5,5.62531 4.5,6.21336 0,2.57805 14.7863,16.27285 21.1473,19.58622 3.4235,1.78323 10.0652,7.33546 14.6971,12.28618 7.154,7.64695 11.6776,11.59329 13.2885,11.59329 0.8986,0 1.8779,0.9334 2.1763,2.07421 0.2983,1.14082 1.4987,2.3243 2.6676,2.62997 1.3552,0.35438 2.3407,1.63309 2.7199,3.52906 0.3566,1.78303 1.7229,3.65945 3.413,4.68727 1.5501,0.94267 4.1792,3.4837 5.8424,5.64672 1.6632,2.16302 3.4113,4.40332 3.8845,4.97844 0.4733,0.57513 1.0412,1.57234 1.262,2.21603 0.5091,1.48438 7.4535,9.33038 16.1514,18.24854 3.7125,3.8065 6.75,7.54255 6.75,8.30233 0,1.21703 0.9075,2.5643 4.9815,7.39522 0.5602,0.66429 1.0185,1.51269 1.0185,1.88533 0,0.37265 1.0942,1.69159 2.4315,2.93098 1.3373,1.2394 2.9246,4.0845 3.5272,6.32245 0.6026,2.23795 1.5524,4.35128 2.1106,4.69628 1.1487,0.70994 4.5124,8.55817 4.1605,9.70717 -0.1264,0.4125 0.2202,0.75 0.7702,0.75 0.55,0 0.9044,0.3375 0.7876,0.75 -0.3758,1.32643 2.4172,5.67476 5.35633,8.3392 1.5709,1.42406 2.8561,3.03051 2.8561,3.56989 0,0.53938 1.3184,2.45736 2.9297,4.26218 1.6114,1.80482 2.7038,3.87025 2.4277,4.58985 -0.2762,0.7196 0.1926,2.65174 1.0417,4.29365 0.849,1.64191 1.8439,4.86272 2.2109,7.15737 0.3669,2.29464 1.2249,4.72987 1.9066,5.41162 1.0866,1.08659 2.966,7.14169 2.4395,7.85959 -0.1076,0.14666 0.9833,2.37825 2.42415,4.95909 2.93588,5.25867 3.18223,6.21051 1.36976,5.29242 -0.6875,-0.34825 -0.46949,0.007 0.48446,0.78986 0.95395,0.78267 1.44145,1.71604 1.08333,2.07416 -0.35812,0.35811 -0.12612,0.65112 0.51554,0.65112 0.64167,0 1.16667,0.6375 1.16667,1.41667 0,0.77916 0.43887,1.56666 0.97526,1.75 0.53639,0.18333 1.05174,2.80833 1.14522,5.83333 0.2053,6.64398 1.31936,10 3.31959,10 1.86729,0 3.17677,2.3998 4.10251,7.51841 0.39605,2.18987 0.97032,4.41255 1.27614,4.93925 0.30582,0.5268 0.66314,1.9623 0.79404,3.19 0.17776,1.6673 -0.16038,2.0794 -1.33591,1.6283 -1.33993,-0.5141 -1.49324,0.1119 -1.0312,4.2111 0.32239,2.8603 1.17443,5.1685 2.09877,5.6858 1.60526,0.8984 1.66122,5.4426 0.11342,9.2096 -0.44503,1.0831 -0.27631,2.6786 0.39733,3.7572 1.27347,2.0392 0.68609,7.5032 -1.02872,9.5695 -0.58924,0.7099 -0.73614,1.2908 -0.32645,1.2908 0.40969,0 0.30113,0.5625 -0.24125,1.25 -0.54237,0.6875 -1.01805,1.925 -1.05707,2.75 -0.039,0.825 -0.32001,5.4892 -0.62444,10.3647 -0.30444,4.8756 -0.26003,9.3396 0.0987,9.92 0.35871,0.5804 0.70097,3.7913 0.76057,7.1353 0.0596,3.344 0.71291,7.9288 1.45179,10.1884 1.18682,3.6295 1.14569,4.4102 -0.3529,6.6973 -0.93298,1.4239 -1.66011,2.8376 -1.61585,3.1416 0.0443,0.304 0.0242,0.7777 -0.0445,1.0527 -0.4803,1.9213 -0.40693,3.2086 0.26198,4.5968 0.4368,0.9066 0.27088,2.0954 -0.38378,2.75 -0.7984,0.7984 -0.81671,1.1532 -0.0595,1.1532 0.76644,0 0.81352,1.2471 0.15733,4.1675 -0.515,2.2921 -0.59439,5.5546 -0.17642,7.25 0.41798,1.6954 0.82055,3.7575 0.89461,4.5825 0.0741,0.825 0.20129,2.0625 0.28272,2.75 0.0814,0.6875 1.04806,1.25 2.14806,1.25 1.1,0 2,0.45 2,1 0,0.55 -0.5625,0.8875 -1.25,0.75 -0.73333,-0.1466 -1.25,0.7834 -1.25,2.25 0,1.8054 0.50532,2.4583 1.81875,2.3497 1.11882,-0.092 1.62639,0.3509 1.3189,1.1522 -0.27492,0.7165 -0.19335,1.6091 0.18125,1.9837 0.37461,0.3746 0.69705,0.9811 0.71654,1.3478 0.0195,0.3666 0.56615,1.62 1.21481,2.7852 0.64866,1.1651 0.89522,2.4026 0.5479,2.75 -0.34732,0.3473 0.0228,0.6314 0.82238,0.6314 0.79962,0 1.52545,0.9504 1.61295,2.1119 0.0875,1.1616 0.81664,2.8491 1.62033,3.75 0.80369,0.901 1.59836,2.9881 1.76593,4.6381 0.16757,1.65 0.71148,3.5592 1.20867,4.2425 0.4972,0.6834 1.04156,3.7179 1.20969,6.7434 0.1848,3.3253 0.9298,6.1249 1.88379,7.0789 0.86796,0.868 1.57811,2.3458 1.57811,3.2841 0,0.9384 0.77979,2.8187 1.73288,4.1786 0.95308,1.3599 1.59979,3.26 1.43714,4.2225 -0.16266,0.9625 0.16843,1.75 0.73574,1.75 0.56731,0 0.77245,0.675 0.45587,1.5 -0.31659,0.825 -0.0775,1.5 0.53138,1.5 0.60885,0 1.10699,0.5271 1.10699,1.1713 0,0.6442 0.74755,1.9973 1.66122,3.0069 3.9642,4.3803 9.57432,16.5327 9.47906,20.533 -0.0489,2.0534 0.82886,4.2871 2.43453,6.1953 1.44104,1.7126 2.65435,4.5818 2.84743,6.7334 0.22475,2.5047 0.93312,3.9586 2.13398,4.3798 1.72152,0.6039 1.72205,0.6595 0.0124,1.3156 -1.91923,0.7365 -1.8492,2.6664 0.42329,11.6647 0.62505,2.475 1.35275,6.6439 1.61711,9.2642 0.39791,3.9439 0.17165,4.874 -1.3142,5.402 -3.06499,1.0892 -5.18724,3.4507 -4.563,5.0774 0.4999,1.3028 0.12303,1.4094 -2.31744,0.6561 -1.60293,-0.4948 -6.0762,-0.8997 -9.9406,-0.8997 -6.86874,0 -7.14553,0.1007 -12.35265,4.4931 -5.1951,4.3823 -5.31431,4.601 -4.83346,8.8671 0.5426,4.8139 -0.73572,7.3008 -7.496,14.5831 -2.01333,2.1687 -4.2526,5.065 -4.97615,6.4361 -0.72356,1.3711 -4.57806,5.7623 -8.56556,9.7584 -3.9875,3.996 -7.25002,7.9622 -7.25002,8.8138 0,0.8516 -0.8449,1.5484 -1.8775,1.5484 -1.0327,0 -2.4767,0.7219 -3.2089,1.6042 -0.7323,0.8823 -2.2499,2.0266 -3.3725,2.5429 -3.6113,1.661 -6.1598,3.3155 -11.75093,7.629 -3.0112,2.3232 -5.8139,4.2239 -6.2282,4.2239 -0.4143,0 -2.0373,0.9143 -3.6067,2.0318 -1.9603,1.3959 -3.6518,1.8315 -5.4044,1.3916 -1.4248,-0.3576 -2.5509,-0.2109 -2.5509,0.3323 0,0.5349 -2.1375,1.7437 -4.75,2.6861 -2.6125,0.9425 -5.65,2.0878 -6.75,2.5452 -1.1,0.4574 -2.7875,1.0833 -3.75,1.3909 -0.9625,0.3077 -1.75,1.2485 -1.75,2.0907 0,1.0349 -0.9727,1.5314 -3,1.5314 -3.2009,0 -7,2.9966 -7,5.5214 0,0.8368 1.1394,2.0406 2.532,2.6751 1.3926,0.6345 4.0633,3.2852 5.9349,5.8903 2.179,3.033 4.6853,5.2004 6.968,6.0258 1.9608,0.7091 3.5651,1.8738 3.5651,2.5883 0,0.7145 0.4875,1.2991 1.0833,1.2991 0.5959,0 0.9044,0.5371 0.6856,1.1934 -0.4142,1.2425 5.2739,6.8066 6.9581,6.8066 0.5297,0 1.7775,0.9 2.773,2 0.9955,1.1 2.4563,2 3.2462,2 0.79,0 4.3042,2.3804 7.8093,5.2899 6.79153,5.6372 18.81803,12.2153 20.46823,11.1955 1.3598,-0.8404 5.1351,0.4487 4.4692,1.5261 -1.1899,1.9253 5.11913,5.8582 13.36141,8.3293 14.56812,4.3676 20.05771,5.1587 26.22857,3.7799 5.393,-1.205 12.95955,-2.1121 18.13457,-2.1739 1.49459,-0.018 2.98365,-0.4632 3.30902,-0.9896 0.32537,-0.5265 2.27502,-0.9572 4.33256,-0.9572 2.05754,0 4.21661,-0.4756 4.79793,-1.0569 0.96191,-0.962 8.73266,-3.2703 15.56088,-4.6224 1.49481,-0.2961 3.23741,-1.1643 3.87245,-1.9295 0.63503,-0.7651 1.88701,-1.3969 2.78216,-1.4039 0.89516,-0.01 4.27847,-1.3569 7.51848,-3 3.24001,-1.643 6.39942,-2.9873 7.02091,-2.9873 1.84142,0 16.79547,-9.0279 20.63167,-12.4555 1.9489,-1.7414 5.7739,-4.2235 8.5,-5.5157 2.7261,-1.2923 7.0794,-3.88 9.674,-5.7505 4.7177,-3.401 15.8906,-7.2783 20.9736,-7.2783 4.6119,0 7.9932,3.8624 8.5618,9.7802 0.9603,9.9941 -6.8725,25.6901 -15.1114,30.2815 -2.2778,1.2694 -7.9755,5.8115 -12.6614,10.0937 -10.979,10.0328 -19.6249,15.7834 -29.53073,19.6417 -7.36863,2.8701 -12.80421,5.4109 -16.43307,7.6815 -0.81603,0.5106 -3.70587,1.0607 -6.42187,1.2225 -2.716,0.1617 -5.91312,0.9329 -7.10472,1.7137 -1.1916,0.7808 -5.95176,1.7338 -10.57813,2.1178 -4.62637,0.3841 -10.88658,1.3763 -13.91158,2.2049 -3.025,0.8287 -7.79364,2.0142 -10.59698,2.6346 -2.80334,0.6203 -5.80078,1.7123 -6.66097,2.4265 -0.95215,0.7905 -1.79829,0.9194 -2.16291,0.3295 z m -0.82914,-10.2784 c 4.5375,-0.634 8.25,-1.4599 8.25,-1.8352 0,-0.3753 -5.2875,-1.1623 -11.75,-1.7488 -7.74363,-0.7028 -13.28572,-1.7612 -16.25401,-3.104 -2.47721,-1.1207 -8.10221,-2.4922 -12.5,-3.0477 -8.0761,-1.0201 -11.1017,-1.918 -21.996,-6.5277 -3.3,-1.3964 -6.9251,-2.5495 -8.05573,-2.5626 -1.1307,-0.013 -3.5806,-1.1487 -5.4443,-2.5237 -1.8637,-1.375 -4.0393,-2.5 -4.8347,-2.5 -0.7954,0 -3.2955,-0.8509 -5.5558,-1.8909 -2.2602,-1.04 -6.1345,-2.706 -8.6095,-3.7022 -2.475,-0.9963 -6.8559,-3.2856 -9.7354,-5.0873 -2.8794,-1.8018 -7.998,-4.6706 -11.3747,-6.3752 -4.3193,-2.1803 -9.2386,-6.2059 -16.5936,-13.5787 -5.7498,-5.7639 -10.9812,-10.3071 -11.6253,-10.0962 -2.2088,0.7233 -5.8648,12.9239 -6.0212,20.0938 -0.148,6.78 -0.1035,6.9032 3.6674,10.164 7.4291,6.4241 33.5437,17.8201 47.9704,20.9336 14.8978,3.2151 24.7141,5.5751 26.8805,6.4624 1.2825,0.5254 6.15693,1.4529 10.83193,2.0612 4.675,0.6083 12.10001,1.7467 16.50001,2.5297 6.99512,1.2448 19.98371,2.9162 26,3.3456 1.1,0.079 5.7125,-0.376 10.25,-1.0101 z m 31.25,-10.3375 c 14.88762,-1.5376 23.11365,-2.6841 29.5,-4.1117 7.49041,-1.6744 17.4947,-6.1893 22.1472,-9.995 2.6983,-2.2072 2.7342,-2.3355 0.6618,-2.3695 -1.205,-0.02 -2.4691,0.414 -2.809,0.964 -0.3399,0.55 -1.6899,1 -3,1 -1.31008,0 -2.66008,0.45 -3,1 -0.33992,0.55 -1.81943,1 -3.2878,1 -1.46838,0 -5.60432,1.0663 -9.19099,2.3695 -10.37921,3.7714 -23.00845,5.5797 -40.52121,5.8019 -20.06584,0.2545 -40.87412,-1.3497 -42.04325,-3.2414 -0.31613,-0.5115 -1.6475,-0.93 -2.95861,-0.93 -1.3111,0 -3.87204,-0.8779 -5.69098,-1.951 -1.81894,-1.073 -6.45716,-3.1342 -10.30716,-4.5803 -10.86601,-4.0816 -32.24754,-16.6908 -39.29294,-23.172 -1.6721,-1.5382 -5.1274,-4.3717 -7.6785,-6.2967 -2.5511,-1.925 -6.7259,-5.3 -9.2775,-7.5 -2.5515,-2.2 -5.4936,-4.675 -6.5379,-5.5 -1.0444,-0.825 -3.7696,-3.3431 -6.056,-5.5957 -4.7408,-4.6708 -8.2407,-6.7781 -10.083,-6.0712 -1.8294,0.7021 -5.7571,9.5199 -5.1205,11.496 1.0648,3.3052 16.1819,17.7899 22.5463,21.6032 12.1281,7.2665 20.4752,11.4129 30,14.9023 5.225,1.9143 11.97503,4.4812 15.00003,5.7043 11.7655,4.7571 22.26285,7.9799 29.22904,8.9738 3.99904,0.5705 10.42097,1.9252 14.27097,3.0104 3.85,1.0852 12.34361,2.405 18.87469,2.933 6.53108,0.528 12.08377,1.169 12.33931,1.4246 0.25553,0.2555 1.88692,0.2924 3.6253,0.082 1.73839,-0.2104 5.6357,-0.6382 8.6607,-0.9506 z m -576.03524,-7.118 c 4.1057,-0.1879 9.7307,-0.7808 12.5,-1.3177 2.7694,-0.5368 9.3102,-1.4672 14.5352,-2.0674 5.225,-0.6003 12.2,-1.5879 15.5,-2.1948 3.3,-0.6068 10.275,-1.8926 15.5,-2.8571 11.0667,-2.0431 19.3623,-4.4796 30.5,-8.9582 4.4,-1.7693 12.5,-4.9095 18,-6.9782 5.5,-2.0687 14.9952,-6.0697 21.1005,-8.891 6.1053,-2.8214 11.3382,-5.1298 11.6288,-5.1298 1.0648,0 29.4368,-16.2944 34.7707,-19.9692 7.0138,-4.8322 21.3037,-10.9036 36.5162,-15.5147 16.0743,-4.8723 19.3486,-5.2627 22.4955,-2.682 2.0344,1.6684 2.2865,2.3713 1.3822,3.8533 -0.832,1.3635 -2.5464,1.8697 -6.919,2.0432 -13.4072,0.5317 -21.5018,3.2582 -26.4688,8.9153 -2.2441,2.5558 -3.0061,4.4139 -3.0061,7.3299 0,2.1484 -0.45,4.1843 -1,4.5242 -0.55,0.3399 -1,3.3644 -1,6.7212 0,4.7306 0.5709,7.0773 2.5389,10.4354 4.4136,7.5313 4.966,7.6463 38.9611,8.1102 32.5965,0.4449 44.6149,-0.5212 65.5,-5.2649 5.775,-1.3117 12.975,-2.6649 16,-3.007 3.025,-0.3421 8.65,-1.6533 12.5,-2.9137 3.85,-1.2604 10.2443,-3.0571 14.2095,-3.9927 14.1196,-3.3315 46.237,-14.9609 52.1498,-18.8829 2.0024,-1.3282 6.7907,-4.3523 10.6407,-6.7203 7.1134,-4.3753 10.7943,-7.0952 23.1054,-17.0734 12.2836,-9.9559 23.2321,-16.2148 40.8946,-23.3781 11.31933,-4.5907 28.50413,-17.3611 28.49883,-21.1782 -6e-4,-0.4706 -4.6131,-0.9358 -10.25,-1.0338 -11.22873,-0.1952 -34.05603,-3.5349 -40.01903,-5.8549 -2.0737,-0.8068 -5.0392,-1.4669 -6.5901,-1.4669 -6.3575,0 -26.3955,-6.4639 -32.8897,-10.6097 -2.7033,-1.7258 -2.9944,-5.9339 -0.5,-7.2273 0.9625,-0.499 3.9132,-1.2213 6.5571,-1.605 12.6476,-1.8356 31.6357,-9.7941 45.6929,-19.1515 3.575,-2.3797 8.5034,-5.0319 10.9521,-5.8936 2.4486,-0.8617 7.3986,-3.2188 11.00003,-5.238 18.04394,-10.1166 30.34497,-13.5623 48.37917,-13.5517 10.56982,0.01 10.81534,-0.045 10.17138,-2.1084 -0.36294,-1.1632 -1.11216,-4.3648 -1.66494,-7.1148 -0.55278,-2.75 -1.60054,-5.675 -2.32835,-6.5 -0.72781,-0.825 -1.8462,-3.3 -2.48531,-5.5 -1.38975,-4.7839 -5.52314,-12.19 -13.16426,-23.5872 -6.10746,-9.1097 -8.94041,-15.2265 -13.85701,-29.9195 -3.63802,-10.872 -3.70427,-12.564 -1.88969,-48.265 0.82619,-16.2548 0.81472,-24.2368 -0.0453,-31.5 -1.10127,-9.3011 -1.62515,-17.2442 -2.52131,-38.2283 -0.22314,-5.225 -0.88739,-10.7667 -1.47611,-12.3151 -0.58872,-1.5483 -1.06923,-4.2483 -1.06779,-6 10e-4,-1.7516 -2.06528,-11.7349 -4.59278,-22.18486 -5.1349,-21.23043 -12.6975,-41.70998 -18.62413,-50.43425 -2.0795,-3.06116 -3.782,-6.29256 -3.7833,-7.18089 -10e-4,-0.88833 -0.8449,-2.68833 -1.8747,-4 -1.6295,-2.07569 -8.0407,-13.09879 -13.0193,-22.38486 -3.0288,-5.64921 -14.4347,-22.5 -15.2298,-22.5 -0.4369,0 -2.0263,-2.1375 -3.532,-4.75 -1.5057,-2.6125 -4.5977,-7 -6.871,-9.75 -2.2734,-2.75 -6.0756,-7.8125 -8.4494,-11.25 -2.3738,-3.4375 -4.6792,-6.25 -5.1231,-6.25 -0.4439,0 -2.2081,-2.0363 -3.9204,-4.52511 -4.3411,-6.30961 -27.8538,-29.36134 -37.4827,-36.74787 -4.4,-3.37533 -12.6118,-8.64537 -18.2484,-11.71119 -7.4215,-4.03664 -12.5503,-7.7729 -18.5933,-13.54503 -4.5897,-4.38394 -9.5087,-8.75541 -10.9312,-9.71437 -1.4225,-0.95897 -3.8555,-3.5037 -5.4067,-5.65496 -1.5512,-2.15126 -5.8483,-7.89166 -9.5489,-12.75643 -3.7007,-4.86477 -8.5844,-12.44504 -10.8528,-16.84504 -2.2683,-4.4 -5.5906,-10.475 -7.3828,-13.5 -1.7923,-3.025 -5.1949,-8.875 -7.5615,-13 -2.3666,-4.125 -6.9556,-10.59407 -10.1979,-14.37571 -3.2423,-3.78165 -6.5847,-7.92815 -7.4275,-9.21447 -0.8429,-1.28631 -7.2258,-7.56981 -14.1843,-13.96333 -16.4115,-15.07905 -27.7479,-20.95123 -49.1647,-25.4671 -5.6409,-1.18941 -32.7297,-3.37825 -39,-3.15129 -14.4309,0.52236 -21.3324,1.94583 -21.8248,4.5015 -0.2032,1.05466 2.6171,4.4533 7.5333,9.07813 10.5425,9.91762 18.7395,23.58162 19.8256,33.04833 0.9463,8.24811 1.7055,12.1207 2.9493,15.04394 0.702,1.65 1.8547,5.59749 2.5616,8.77219 1.3286,5.96754 2.5725,7.91767 9.5901,15.03434 3.9864,4.04274 8.6939,6.89986 16.6149,10.08397 2.0625,0.8291 3.75,1.92122 3.75,2.42694 0,0.51701 -6.4565,0.92685 -14.75,0.9363 -18.0316,0.0205 -27.1629,0.69483 -33.8518,2.49974 -2.806,0.75717 -5.956,1.03666 -7,0.62111 -1.044,-0.41555 -4.5982,-0.50051 -7.8982,-0.18879 -4.6547,0.43969 -6.4484,1.09772 -8,2.93484 -1.3502,1.59875 -4.4366,2.98701 -9.5,4.27323 -11.9495,3.03543 -18.8847,6.97612 -24.0463,13.66358 -4.4316,5.74153 -4.4552,5.81537 -4.7656,14.85638 -0.3012,8.77772 -0.1994,9.2703 3,14.51035 3.7007,6.06094 11.4977,12.07224 15.6711,12.08198 1.4524,0.003 3.9297,0.67839 5.5051,1.5 3.9962,2.08417 7.3518,1.8626 9.3955,-0.6204 10.8326,-13.16087 31.3838,-24.88576 43.6195,-24.88576 5.9607,0 8.5003,-1.28695 12.1207,-6.14231 3.2128,-4.30867 9.8136,-9.4368 15.5,-12.04179 4.6551,-2.13256 28.5298,-8.0531 30.7501,-7.62552 3.6856,0.70978 1.8143,3.27569 -2.8784,3.94696 -2.5456,0.36413 -5.4706,1.09967 -6.5,1.63454 -1.0294,0.53486 -3.9018,1.26647 -6.383,1.62578 -8.1674,1.18275 -20.6089,10.29982 -24.1203,17.67529 -7.1103,14.93458 -7.3122,17.34533 -2.4234,28.93701 3.6944,8.75986 8.1521,14.02513 11.7959,13.9328 1.2425,-0.0315 5.4091,-2.07547 9.2591,-4.54218 3.85,-2.46671 8.8,-5.33531 11,-6.37467 10.4614,-4.94235 30.7511,-8.15372 33.6013,-5.31829 1.9052,1.89523 -0.7432,4.29238 -4.7421,4.29238 -3.7318,0 -17.4317,3.4369 -20.7593,5.2079 -7.0871,3.77186 -12.7821,8.5474 -16.2183,13.59962 -2.1294,3.13086 -4.4357,6.28645 -5.1251,7.01241 -1.9004,2.00108 -2.6879,5.95631 -2.7239,13.68007 -0.054,11.53142 4.7356,18.41611 17.3481,24.9383 1.7156,0.88719 3.1193,2.2765 3.1193,3.08738 0,1.15558 1.4593,1.46972 6.75,1.45304 10.31,-0.0325 30.2914,-2.58452 34.544,-4.41198 2.0867,-0.8967 4.2242,-1.36449 4.75,-1.03954 1.8729,1.15751 0.9123,4.45419 -1.794,6.15688 -1.5125,0.9516 -3.9767,2.72385 -5.476,3.93833 -1.4994,1.21449 -4.0817,2.5059 -5.7386,2.86981 -2.8639,0.62902 -4.7361,2.14043 -3.8048,3.07166 0.2369,0.23695 3.0289,-0.0495 6.2043,-0.63648 6.007,-1.11045 12.737,-4.4115 18.8851,-9.26313 5.8248,-4.59639 8.0251,-0.60473 2.9751,5.39693 -2.6833,3.1889 -13.1308,10.32099 -18.6886,12.75794 -7.4732,3.27686 -26.6741,6.07842 -46.6065,6.80027 -21.7663,0.78826 -31.7181,0.63573 -38.7525,-0.59396 -5.5246,-0.96575 -9.6537,-1.01552 -17.3305,-0.20891 -5.5429,0.5824 -10.65,0.83941 -11.3491,0.57114 -0.6991,-0.26827 -8.0649,0.22288 -16.3683,1.09145 -11.5294,1.20601 -17.5745,2.39945 -25.5798,5.05004 -5.7653,1.90896 -11.3891,3.47083 -12.4973,3.47083 -2.407,0 -15.8567,6.8135 -18.8737,9.56125 -1.1708,1.06631 -4.4051,3.73875 -7.1874,5.93875 -2.7822,2.2 -6.5217,5.75228 -8.31,7.89395 -1.7883,2.14167 -5.9514,7.09948 -9.2514,11.01736 -3.3,3.91788 -6.7368,8.91561 -7.6373,11.10606 -0.9005,2.19044 -2.4554,6.00763 -3.4554,8.48263 -1,2.475 -2.8507,5.77203 -4.1127,7.32673 -1.262,1.55469 -2.3011,3.57969 -2.3091,4.5 -0.018,2.06595 -2.6388,9.70865 -4.5035,13.13293 -1.6587,3.0461 -4.5062,12.8075 -5.5542,19.0403 -2.294,13.6432 -2.6573,16.9042 -2.3396,21 0.1919,2.475 0.5485,13.725 0.7924,25 0.2872,13.273 1.0409,23.6714 2.138,29.4957 1.8034,9.5736 7.4785,24.6874 10.5155,28.0043 1.0072,1.1 2.7314,4.1046 3.8317,6.6769 2.3903,5.5883 7.3494,12.8353 12.5385,18.3231 14.5306,15.3672 16.8081,19.2456 12.6185,21.4878 -3.7503,2.0071 -8.2291,-1.1757 -19.1383,-13.6007 -5.7115,-6.5051 -11.8994,-13.3226 -13.751,-15.15 -1.8516,-1.8274 -5.2502,-6.7908 -7.5524,-11.0298 -2.3022,-4.239 -4.6849,-8.6073 -5.2948,-9.7073 -0.6099,-1.1 -1.8738,-4.1707 -2.8086,-6.8239 -1.9292,-5.4758 -3.3337,-6.4154 -6.7403,-4.5097 -1.3113,0.7335 -5.8633,3.094 -10.1155,5.2455 -8.0054,4.0505 -11.2215,7.0611 -12.2855,11.5006 -0.3411,1.4232 -1.5177,4.3774 -2.6146,6.5649 -3.1818,6.3452 -2.8701,15.4971 0.801,23.5209 1.6353,3.5741 4.3906,8.3552 6.123,10.6248 4.1601,5.45 5.579,8.2042 4.8414,9.3976 -1.9823,3.2075 -12.938,-2.1196 -18.2939,-8.8953 -4.1318,-5.2271 -5.1946,-7.498 -7.6404,-16.3245 -0.8685,-3.1345 -2.0395,-5.9835 -2.602,-6.3312 -0.5626,-0.3477 -5.7731,0.4169 -11.5789,1.6991 -10.4331,2.3041 -10.6056,2.3894 -14.8271,7.3312 -6.8633,8.0345 -8.537,11.3923 -8.5412,17.1357 0,2.8246 -0.6759,6.4246 -1.4975,8 -2.3778,4.5592 -1.8474,10.4105 1.6142,17.8079 1.7162,3.6674 4.0787,7.2711 5.25,8.0081 4.8769,3.0688 6.0599,2.8069 12.9945,-2.8773 3.6667,-3.0056 9.6876,-6.9518 13.3798,-8.7695 6.248,-3.0759 7.421,-3.3071 16.9323,-3.3364 5.6206,-0.017 10.3896,-0.2423 10.5978,-0.5 0.2081,-0.2577 1.8764,-2.5972 3.7073,-5.199 1.8309,-2.6018 6.5214,-7.1695 10.4234,-10.1505 9.0538,-6.9169 18.0162,-10.619 25.7079,-10.619 6.1292,0 7.4016,0.8021 6.3798,4.0214 -0.5384,1.6966 -1.4292,1.9777 -5.8145,1.8353 -7.5185,-0.2443 -15.0622,3.4897 -22.9151,11.3427 -5.8499,5.8499 -6.6283,7.1542 -9.5782,16.0503 -3.8935,11.7419 -3.6387,18.3486 0.9988,25.8915 2.8455,4.6283 11.9202,11.8588 14.8833,11.8588 0.8527,0 2.4238,0.6753 3.4914,1.5007 1.9049,1.4726 1.8971,1.5379 -0.4197,3.5 -3.3813,2.8636 -7.9697,2.4768 -14.8378,-1.2507 -7.3089,-3.9668 -9.9296,-6.0725 -14.0012,-11.25 -4.6423,-5.9033 -5.7811,-11.3423 -4.2496,-20.2959 1.108,-6.4773 1.0672,-7.5148 -0.3509,-8.933 -2.2296,-2.2296 -6.4369,-2.0044 -13.3252,0.7133 -13.5869,5.3605 -25.3939,16.3185 -29.3891,27.2759 -2.0392,5.5926 -2.1541,6.8591 -1.1986,13.2126 0.5812,3.8649 1.3884,8.3771 1.7938,10.0271 0.8635,3.5142 5.094,10.3135 7.8362,12.5942 2.6168,2.1766 1.4268,4.9074 -2.1354,4.9002 -11.3094,-0.023 -18.8993,-9.0258 -19.3849,-22.9944 -0.2334,-6.7138 1.2345,-13.0675 5.1384,-22.2415 1.6308,-3.8324 2.9592,-7.4833 2.952,-8.1132 -0.01,-0.6299 -2.7181,-2.4442 -6.024,-4.0317 -6.0331,-2.8971 -9.9746,-6.8617 -13.534,-13.6136 -2.5409,-4.82 -2.3517,-13.5441 0.5207,-24 3.4728,-12.642 3.6136,-14.115 1.4967,-15.6629 -1.0057,-0.7354 -2.7702,-1.3371 -3.9211,-1.3371 -3.1753,0 -12.3841,-6.3658 -16.6144,-11.4852 -2.0697,-2.5045 -4.5302,-6.8635 -5.4679,-9.6867 -1.508,-4.5401 -1.5714,-6.4504 -0.5489,-16.5356 0.6358,-6.2714 0.8932,-11.8278 0.572,-12.3475 -0.3212,-0.5197 -2.1552,-0.945 -4.0756,-0.945 -1.9204,0 -7.1813,-1.4578 -11.691,-3.2397 -6.7551,-2.6691 -9.387,-4.4063 -14.9415,-9.862 -11.4985,-11.294 -14.3859,-21.7113 -10.3318,-37.2757 2.0993,-8.0597 4.1945,-11.4334 11.2092,-18.0491 3.5006,-3.3014 6.3647,-6.6128 6.3647,-7.3586 0,-0.7458 -1.7763,-3.4627 -3.9474,-6.0374 -5.317,-6.3057 -6.9922,-10.7322 -7.1337,-18.85 -0.2249,-12.90373 3.1412,-20.15523 14.5224,-31.28567 5.1361,-5.0229 5.3137,-5.97802 3.0761,-16.54216 -1.9575,-9.24125 -1.9017,-17.47728 0.1539,-22.72939 2.2175,-5.6657 6.9592,-12.7197 10.4814,-15.59272 1.9423,-1.58429 2.8473,-3.24503 2.8473,-5.225 0,-2.73707 -0.1853,-2.86665 -3.25,-2.27318 -1.7875,0.34613 -3.6113,1.23748 -4.0529,1.98077 -0.4948,0.83277 -1.7002,1.12623 -3.1409,0.76463 -1.2859,-0.32274 -2.5816,-0.19264 -2.8793,0.28911 -0.2978,0.48175 -7.2094,0.81043 -15.3591,0.73039 -14.4371,-0.14177 -24.1906,-1.51098 -35.3178,-4.95796 -2.475,-0.76671 -6.975,-2.12879 -10,-3.02685 -3.025,-0.89806 -6.4013,-2.46782 -7.5029,-3.48835 -1.1017,-1.02054 -4.601,-3.04495 -7.7765,-4.4987 -15.7061,-7.19049 -35.7103,-24.81926 -41.387,-36.47238 -6.1445,-12.61334 -7.1906,-15.56195 -7.7286,-21.7838 -0.6332,-7.3212 -1.7303,-10.05587 -3.2215,-8.02939 -1.6741,2.27507 -3.5374,8.7551 -2.8413,9.88139 0.367,0.59392 -0.2964,2.10572 -1.4743,3.35956 -3.33,3.5446 -4.2059,17.08965 -2.5914,40.07224 0.3864,5.5 0.7892,12.7 0.8951,16 0.1059,3.3 0.6863,6.9 1.2897,8 0.6035,1.1 1.9082,4.46404 2.8995,7.47564 0.9913,3.0116 3.1572,7.7366 4.8131,10.5 1.6559,2.7634 4.4627,7.42703 6.2374,10.36363 4.1235,6.82308 17.3127,21.33678 22.7234,25.0054 6.3869,4.33045 13.3483,6.15533 23.4808,6.15533 12.5004,0 13.2603,1.22078 4.989,8.01506 -3.4675,2.8483 -6.7545,5.72748 -7.3045,6.39818 -1.2422,1.51488 -7.3491,4.58676 -9.1184,4.58676 -0.7212,0 -1.7929,0.9 -2.3816,2 -0.5887,1.1 -1.928,2 -2.9762,2 -1.0482,0 -2.1748,0.43526 -2.5036,0.96725 -0.3287,0.53198 -1.9303,0.70073 -3.559,0.375 -2.1635,-0.43271 -2.9612,-0.21175 -2.9612,0.82026 0,0.96335 -1.3206,1.46517 -4.1531,1.57812 -2.2842,0.0911 -4.6242,0.63671 -5.2,1.21249 -0.5758,0.57579 -2.0819,1.04688 -3.3469,1.04688 -1.3778,0 -2.3,0.60145 -2.3,1.5 0,0.91545 -0.9326,1.5 -2.393,1.5 -1.3162,0 -2.652,0.675 -2.9686,1.5 -0.3166,0.82496 -1.4416,1.49996 -2.5,1.49996 -1.0584,0 -2.1834,0.675 -2.5,1.5 -0.3166,0.825 -1.5526,1.5 -2.7468,1.5 -1.1941,0 -2.7345,0.7706 -3.4231,1.7123 -1.0304,1.4092 -1.5231,1.4873 -2.7831,0.4416 -1.293,-1.0731 -1.5819,-0.9118 -1.8582,1.0378 -0.2162,1.5252 -1.1113,2.4195 -2.6383,2.6359 -1.2712,0.1802 -2.5526,0.9566 -2.8476,1.7254 -0.9469,2.4677 -6.028,4.2926 -10.5621,3.7935 -3.4068,-0.3751 -3.9224,-0.2444 -2.5292,0.6409 2.3252,1.4775 2.2231,3.0126 -0.2003,3.0126 -1.0727,0 -2.3977,0.7875 -2.9445,1.75 -0.8204,1.4441 -1.3348,1.5418 -2.9419,0.5589 -2.1989,-1.3448 -3.1633,-0.7975 -3.1633,1.7949 0,1.4671 -0.6036,1.6725 -3.5226,1.1989 -3.9117,-0.6348 -7.4774,1.6345 -7.4774,4.7587 0,1.2455 -0.5646,1.6038 -1.9546,1.2403 -1.4769,-0.3863 -2.1145,0.1255 -2.6085,2.0936 -0.3974,1.5836 -1.3502,2.6047 -2.4303,2.6047 -2.365,0 -5.251,4.3556 -3.8285,5.7782 0.5762,0.5761 0.7211,1.576 0.3219,2.2218 -0.5226,0.8456 -1.03,0.87 -1.8129,0.087 -2.1817,-2.1817 -3.6829,-1.1956 -3.2926,2.1629 0.3676,3.1634 0.494,3.2426 4.7416,2.9735 2.4001,-0.1521 5.9389,-0.7905 7.8639,-1.4186 2.2153,-0.7227 12.4933,-1.1617 28,-1.1959 20.1239,-0.044 25.9289,0.2681 32.5,1.7489 4.4,0.9915 10.7,2.3984 14,3.1264 8.2963,1.8303 21.946,8.4578 35,16.9939 13.0002,8.5009 15.4724,9.8827 16.2643,9.0908 0.3262,-0.3261 0.4867,-3.6251 0.3567,-7.331 -0.7228,-20.6102 -0.5956,-30.6829 0.4912,-38.8894 1.2451,-9.402 2.1452,-12.0725 4.8166,-14.2895 2.7852,-2.3115 3.8208,3.1797 3.7608,19.9409 -0.1171,32.7179 2.5288,53.5788 7.5071,59.1855 1.5558,1.7522 2.1079,9.1953 1.042,14.0482 -0.3302,1.5036 -0.1815,2.9927 0.3305,3.3091 0.5119,0.3164 0.9308,1.4487 0.9308,2.5162 0,1.0676 0.5625,1.9479 1.25,1.9563 0.8333,0.01 0.75,0.3385 -0.25,0.9847 -1,0.6463 -1.0833,0.9745 -0.25,0.9847 0.6875,0.01 1.25,1.0402 1.25,2.2928 0,1.2526 0.6147,3.1651 1.366,4.25 1.5532,2.2428 7.5852,17.4727 9.8906,24.9725 4.2778,13.9165 22.4384,50.2942 26.7084,53.5 0.3662,0.275 3.0121,4.325 5.8797,9 2.8676,4.675 6.8882,10.7986 8.9346,13.608 2.0464,2.8094 5.9899,8.2765 8.7634,12.1493 6.7582,9.4368 10.6734,13.6201 19.3869,20.7142 4.0341,3.2844 9.0354,8.2737 11.114,11.0875 2.0786,2.8137 7.2668,8.0015 11.5292,11.5284 4.2624,3.5269 11.594,9.936 16.2925,14.2424 4.6984,4.3064 9.9133,8.5313 11.5887,9.3887 1.6753,0.8575 5.6658,3.5423 8.8677,5.9663 6.3408,4.8002 11.6688,7.4565 24.6256,12.2769 18.6792,6.9493 42.465,6.5335 56.2339,-0.9832 2.9254,-1.597 8.2438,-5.4742 11.8188,-8.6161 9.4412,-8.2974 17.2156,-13.8346 26.3998,-18.8028 10.5898,-5.7287 29.1663,-12.9459 38.6002,-14.9967 4.125,-0.8967 8.9822,-2.1015 10.7937,-2.6772 6.1779,-1.9634 15.313,1.1209 11.8449,3.9993 -0.7624,0.6327 -8.0804,2.0785 -16.2624,3.213 -11.9375,1.6552 -16.3826,2.7382 -22.5021,5.4823 -4.1942,1.8808 -7.9767,3.4197 -8.4056,3.4197 -0.4288,0 -2.1722,1.0362 -3.8741,2.3027 -1.7019,1.2665 -4.8653,3.3255 -7.0298,4.5757 -2.1645,1.2501 -6.2145,4.2598 -9,6.6881 -2.7855,2.4283 -8.3426,7.2317 -12.3491,10.6743 -4.0065,3.4425 -10.0815,8.6657 -13.5,11.607 -3.4185,2.9413 -7.014,5.9838 -7.99,6.7612 -2.3408,1.8644 -8.9525,5.391 -10.1072,5.391 -0.5012,0 -3.2591,1.5584 -6.1287,3.4631 -2.8695,1.9047 -7.7631,4.4156 -10.8744,5.5797 -3.674,1.3746 -6.6138,3.3155 -8.3861,5.5368 -1.653,2.0717 -3.6163,3.4203 -4.9791,3.4203 -1.2375,10e-5 -2.25,0.3495 -2.25,0.7765 0,0.427 -1.7126,0.6131 -3.8058,0.4135 -2.6032,-0.2483 -4.2217,0.1383 -5.1224,1.2236 -0.7242,0.8725 -2.3384,1.5865 -3.5873,1.5865 -1.2488,0 -2.5475,0.7217 -2.8859,1.6037 -0.3807,0.9921 -1.2395,1.3643 -2.2516,0.9759 -0.8999,-0.3453 -2.3587,0 -3.2416,0.7634 -0.883,0.7653 -2.2804,1.4323 -3.1054,1.4823 -2.7124,0.1646 -10.6927,2.6756 -12.1105,3.8105 -1.243,0.9951 -8.6324,2.7087 -17.6045,4.0825 -1.7682,0.2708 -3.7358,1.1199 -4.3724,1.887 -0.6366,0.7671 -2.2274,1.3947 -3.535,1.3947 -1.3077,0 -2.3776,0.4704 -2.3776,1.0453 0,0.6481 -1.2978,0.8019 -3.4152,0.4046 -2.9527,-0.5539 -6.058,0.031 -12.5848,2.3701 -0.825,0.2957 -3.3,0.656 -5.5,0.8007 -2.2,0.1447 -5.8,0.5261 -8,0.8476 -2.2,0.3215 -4.9,0.6216 -6,0.6668 -1.7832,0.073 -9.4957,2.1942 -13.5,3.7123 -0.825,0.3128 -3.3,0.6456 -5.5,0.7396 -2.2,0.094 -6.9823,0.4646 -10.6273,0.8237 -3.7613,0.3705 -8.7248,0.1827 -11.4775,-0.4342 -2.8004,-0.6276 -7.5524,-0.7976 -11.2439,-0.4023 l -6.3936,0.6847 8.3712,3.4796 c 4.6041,1.9138 12.0494,4.0783 16.5451,4.8101 4.4958,0.7317 10.3458,2.2329 13,3.3359 13.0914,5.4403 65.1028,5.846 83.326,0.65 3.025,-0.8625 8.7884,-2.0029 12.8076,-2.5341 4.0192,-0.5313 12.3442,-2.5646 18.5,-4.5185 6.1558,-1.9539 15.2424,-4.2457 20.1924,-5.093 16.1456,-2.7635 28.4069,-6.7809 47,-15.3993 8.1421,-3.7741 26.6489,-12.8425 28.5,-13.9651 0.825,-0.5004 5.775,-2.9456 11,-5.434 5.225,-2.4884 13.1,-6.9061 17.5,-9.8171 7.2706,-4.8103 14.7233,-9.3705 20,-12.2379 1.1,-0.5977 3.8,-2.2341 6,-3.6365 2.2,-1.4024 6.7,-3.6204 10,-4.929 3.3,-1.3086 6.4536,-2.7019 7.0079,-3.0961 1.641,-1.1672 9.8418,-3.8436 11.8254,-3.8593 4.0214,-0.032 0.5642,2.591 -7.9032,5.9962 -11.3418,4.5612 -11.6739,4.7438 -25.4301,13.9835 -6.325,4.2484 -13.7783,8.8775 -16.5628,10.287 -2.7846,1.4095 -5.7096,3.3499 -6.5,4.3121 -1.4099,1.7161 -16.9616,9.4066 -19.0221,9.4066 -0.5767,0 -2.481,1.0597 -4.2318,2.355 -3.4512,2.5532 -12.5086,7.3787 -19.6833,10.4868 -2.475,1.0721 -7.425,3.3059 -11,4.9638 -9.9633,4.6207 -13.7821,6.1471 -23,9.1936 -4.675,1.5451 -10.525,3.7035 -13,4.7965 -2.475,1.093 -7.2,2.2951 -10.5,2.6713 -5.6494,0.6441 -12.0341,2.2883 -31,7.9835 -30.6959,9.2174 -90.9337,10.6441 -109.1522,2.5852 -2.5311,-1.1196 -5.4384,-2.0357 -6.4606,-2.0357 -2.4865,0 -10.1337,-1.8421 -16.8872,-4.0678 -9.4736,-3.1223 -17.1927,-5.0728 -17.7741,-4.4914 -0.7481,0.7481 -0.7455,0.7499 7.2741,5.1234 10.8529,5.9188 11.6109,6.2552 18,7.9889 3.3,0.8955 7.0273,2.0345 8.2828,2.531 2.4661,0.9754 12.25,3.1497 24.2172,5.3817 4.125,0.7694 14.025,1.9059 22,2.5254 7.975,0.6196 15.625,1.2892 17,1.4879 2.2204,0.3209 11.1021,0.053 35.9648,-1.0849 z m 357.5352,-261.243 c -16.8985,-3.7447 -32.456,-16.5537 -39.0889,-32.183 -7.1915,-16.9459 -7.6226,-21.889 -3.5289,-40.4682 4.6179,-20.958 13.4598,-34.6412 29.2607,-45.2821 5.3703,-3.6166 23.2346,-9.6611 31.8571,-10.7791 7.7722,-1.0077 27.7685,3.1274 33.929,7.0164 5.1583,3.2563 17.5181,16.7681 19.9476,21.8069 2.9168,6.0493 8.1234,26.997 8.1234,32.6829 0,5.7676 -2.5951,18.5687 -4.4712,22.055 -0.7399,1.375 -1.6626,4.1925 -2.0504,6.2611 -0.3878,2.0686 -1.1105,4.0116 -1.606,4.3178 -0.4955,0.3063 -1.7871,2.2938 -2.8701,4.4166 -2.9406,5.7641 -17.0429,20.0045 -19.8104,20.0045 -1.2493,0 -4.1661,0.9877 -6.4817,2.1948 -17.616,9.1831 -28.5713,11.2004 -43.2102,7.9564 z m 25.6243,-19.664 c 18.942,-6.549 32.8219,-20.5978 37.4143,-37.8697 1.594,-5.9948 1.6825,-7.8945 0.6864,-14.7287 -1.3401,-9.1947 -7.4974,-22.6052 -13.544,-29.4986 -5.3613,-6.1122 -15.0473,-10.587 -24.1709,-11.1668 -9.4039,-0.5975 -23.5523,1.2392 -28.219,3.6635 -8.5369,4.4347 -21.5675,26.7086 -23.4121,40.0196 -1.055,7.6134 -0.025,19.6856 2.4318,28.5125 1.3617,4.8913 6.8023,12.581 8.9013,12.581 0.6045,0 2.4916,1.0213 4.1935,2.2696 5.524,4.0514 11.9431,6.6182 16.3925,6.5547 2.364,-0.034 4.5765,0.217 4.9167,0.5572 1.168,1.168 10.0365,0.6176 14.4095,-0.8943 z m -15.1243,-17.7777 c -7.9561,-3.0231 -9.2316,-4.1483 -13.1754,-11.6232 -3.4809,-6.5976 -3.8792,-8.0726 -3.6181,-13.3977 0.2473,-5.0423 0.6869,-6.2729 2.7935,-7.8206 2.3508,-1.727 2.8581,-1.744 8.5,-0.2843 8.1547,2.1098 18.5801,3.6695 19.3542,2.8955 1.2056,-1.2056 -7.4415,-8.1558 -12.3885,-9.9575 -8.2254,-2.9956 -10.846,-8.0391 -6.2306,-11.9909 5.7723,-4.9424 10.0505,-6.5069 17.7649,-6.4967 12.8347,0.017 20.9048,5.3076 25.5213,16.7317 5.1388,12.7164 3.0837,23.3393 -6.3656,32.9033 -8.0316,8.1291 -23.275,12.4147 -32.1557,9.0404 z m 278.25004,281.0742 c 1.9981,-2.2895 2.4822,-4.9159 0.55,-2.9837 -0.66,0.66 -1.8975,1.2141 -2.75,1.2314 -0.8525,0.017 -2.3714,1.1594 -3.3753,2.538 l -1.8253,2.5065 2.8253,-0.6435 c 1.5539,-0.3539 3.6128,-1.5458 4.5753,-2.6487 z m -698.74134,-261.8865 c 4.9452,-3.3566 9.1415,-6.5073 9.3251,-7.0014 0.1836,-0.4942 -1.3914,-2.8664 -3.5,-5.2717 -2.1086,-2.4052 -5.4081,-7.4594 -7.3323,-11.2315 -3.7743,-7.3988 -4.1325,-10.4062 -2.7112,-22.7638 l 0.7903,-6.8713 -7.7903,0.7277 c -4.2847,0.4003 -8.9246,1.3131 -10.3111,2.0285 -6.7214,3.4681 -12.6908,12.7531 -14.5828,22.6827 -1.2358,6.4861 -1.1784,7.1446 1.1654,13.3717 3.0267,8.0412 5.4126,11.3564 11.126,15.4594 9.2125,6.616 12.6486,6.4529 23.8209,-1.1303 z m 35.7473,-18.7078 c 3.5562,-5.3738 16.2682,-16.4459 22.4608,-19.5632 2.8692,-1.4444 6.6389,-2.6262 8.3772,-2.6262 l 3.1605,0 -0.5616,-4.75 c -0.3089,-2.6125 -1.0693,-7.675 -1.6899,-11.25 -1.0737,-6.1853 -1.396,-11.0932 -2.5128,-38.2658 -0.9054,-22.0285 2.4917,-48.35768 7.4296,-57.58437 1.8529,-3.46214 5.2178,-15.11812 4.6361,-16.05933 -1.5204,-2.46004 -5.7664,-2.00961 -12.3607,1.31126 -6.5596,3.30335 -10.679,7.32706 -19.7937,19.33392 -3.31,4.36025 -6.5749,14.25442 -6.6869,20.26432 -0.1531,8.2159 2.282,18.8475 4.7722,20.8351 3.3128,2.6441 6.6075,10.1203 5.4297,12.3209 -3.2117,6.0013 -17.5535,-4.2371 -24.7321,-17.656 -2.3668,-4.424 -2.657,-6.0083 -2.52,-13.7536 0.1507,-8.5182 0.089,-8.7702 -2.302,-9.3702 -3.1254,-0.7845 -9.7636,0.2628 -13.3186,2.1012 -1.5104,0.7811 -5.5359,3.7512 -8.9457,6.6003 -7.1121,5.9428 -12.0981,14.4649 -12.0981,20.6785 0,2.0972 -0.9205,6.4322 -2.0456,9.6332 -1.9552,5.5629 -1.973,6.0474 -0.4042,10.9654 3.2809,10.2849 10.6775,18.6452 16.4959,18.6452 1.1799,0 3.4225,0.7545 4.9835,1.6766 l 2.8381,1.6765 6.4954,-6.0761 c 10.5186,-9.8396 16.3315,-13.2303 23.8921,-13.9363 3.9713,-0.3709 6.7069,-0.211 7.0935,0.4145 0.8453,1.3678 -0.6659,2.3792 -8.3487,5.5879 -4.3325,1.8095 -8.7447,4.7893 -13.2315,8.9359 -5.5599,5.1384 -7.0891,7.2653 -8.7866,12.221 -3.2279,9.4239 -1.0043,20.1974 6.4334,31.1701 2.2252,3.2827 10.8274,10.2682 12.7018,10.3147 0.3394,0.01 1.7519,-1.6996 3.1389,-3.7954 z m -65.3309,-35.467 c 3.5638,-2.3223 8.2105,-4.9977 10.3261,-5.9453 l 3.8464,-1.723 -5.2988,-5.373 c -6.529,-6.6205 -9.7988,-14.4994 -9.7988,-23.6109 0,-3.4109 -0.4449,-7.0329 -0.9886,-8.0488 -1.2619,-2.3579 -7.8778,-4.7173 -15.3354,-5.4691 -3.2032,-0.3229 -7.5728,-1.4793 -9.7102,-2.5697 -5.0374,-2.5699 -5.6454,-2.5183 -10.828,0.9201 -5.672,3.763 -8.7201,9.3017 -10.6143,19.2871 l -1.5341,8.0869 3.2553,6.5713 c 4.2924,8.6649 13.7149,18.1025 20.9107,20.944 4.2493,1.6781 6.7736,2.0124 12.3174,1.6316 6.093,-0.4185 7.7903,-1.0117 13.4523,-4.7012 z m -226.7418,-41.939 c -0.7175,-0.7176 -1.1833,-0.7766 -1.1833,-0.15 0,1.3348 1.1826,2.5174 1.85,1.85 0.2842,-0.2842 -0.016,-1.0492 -0.6667,-1.7 z m 229.7711,-18.759 c 2.1317,-1.1408 9.0456,-10.4799 9.0456,-12.2185 0,-0.6542 -1.75,-4.1407 -3.889,-7.7477 -2.1389,-3.607 -4.856,-9.81396 -6.0379,-13.79326 -2.2027,-7.41618 -3.8025,-9.22053 -8.2574,-9.31293 -2.6963,-0.0559 -6.3626,-1.9524 -14.0997,-7.29335 -6.4985,-4.48593 -7.9663,-4.33768 -13.0785,1.32088 -5.1274,5.67537 -7.9458,15.37756 -6.705,23.08176 0.5163,3.2064 1.4079,6.7063 1.9813,7.7777 2.4973,4.6663 11.4042,13.8804 15.7995,16.3446 4.2034,2.3565 5.922,2.6916 14.1024,2.75 5.1237,0.037 10.1361,-0.3726 11.1387,-0.9092 z m 25.3308,-23.4474 c 1.2181,-0.7826 6.665,-1.9453 12.1042,-2.5837 5.4391,-0.6385 10.768,-1.48584 11.8418,-1.88309 1.0739,-0.39725 3.8237,-3.84705 6.1107,-7.66622 3.5484,-5.92569 5.7711,-8.15164 15.1581,-15.17966 6.0853,-4.55609 12.0053,-8.2421 13.25,-8.25 1.2375,-0.008 2.25,-0.41203 2.25,-0.89815 0,-0.48612 2.475,-1.88838 5.5,-3.11614 6.012,-2.44009 6.2819,-3.08587 3.9712,-9.5 -0.8046,-2.23329 -1.4477,-7.61464 -1.4561,-12.1839 l -0.015,-8.18391 -4.1763,-2.81609 c -5.7761,-3.89494 -13.2747,-13.89873 -15.3478,-20.47524 -1.6276,-5.16347 -1.6309,-5.97987 -0.055,-13.9131 1.51,-7.60249 5.6557,-17.70288 10.3443,-25.20286 1.5253,-2.4399 1.5537,-2.89101 0.2349,-3.73469 -1.3865,-0.88699 -10.1266,-1.45165 -16,-1.03369 -5.0349,0.35829 -14.6295,5.73307 -19.4678,10.90564 -7.7468,8.28196 -12.1956,14.83879 -13.5007,19.89811 -0.6725,2.60685 -1.652,5.89935 -2.1767,7.31666 -1.4327,3.8697 0.7756,19.58895 3.3332,23.72725 1.6499,2.66967 2.5116,3.22154 4.1943,2.68636 7.1355,-2.26947 18.2803,-4.1609 20.5989,-3.49593 4.6183,1.32451 9.1597,4.08264 8.7498,5.31405 -0.2356,0.7079 -2.6674,1.24985 -5.9927,1.33552 -3.9203,0.101 -7.3281,0.99946 -11.379,3 -8.1655,4.03254 -9.3593,4.73797 -9.3593,5.53054 0,0.38525 -2.2246,1.91125 -4.9436,3.39111 -6.4202,3.49427 -15.0303,14.71229 -21.0564,27.43417 -3.9945,8.43271 -4.4768,10.19828 -4.2936,15.71539 0.2249,6.77342 2.0396,11.29287 5.5104,13.72387 2.7368,1.917 3.2799,1.9293 6.0683,0.1377 z m -24.7977,-31.55709 c 1.3819,-2.18907 2.5125,-4.24549 2.5125,-4.56982 0,-1.74224 7.3287,-10.91815 14.1792,-17.75309 8.3565,-8.33752 8.9909,-9.91357 6.4058,-15.91303 -3.6167,-8.39334 -5.4988,-13.7404 -6.7395,-19.1472 l -1.3455,-5.86327 -5.2032,0.53618 c -5.2693,0.543 -15.5172,4.50558 -20.5445,7.94396 -7.1522,4.89178 -12.663,18.25894 -13.3289,32.33118 l -0.3899,8.24071 4.3414,5.83725 c 9.6389,12.95998 15.6343,15.45116 20.1126,8.35713 z m 117.5204,-23.26987 c 0.5978,-0.6875 2.8894,-3.68947 5.0925,-6.67105 2.2032,-2.98158 9.0444,-9.45363 15.2027,-14.38233 6.1583,-4.92871 12.5469,-10.22791 14.1969,-11.77601 1.65,-1.5481 9.975,-6.1765 18.5,-10.28533 14.4926,-6.98506 25.8122,-10.81031 35.5,-11.99651 2.2,-0.26938 8.2948,-1.41164 13.5441,-2.53837 12.4087,-2.66348 28.4275,-3.96774 54.7855,-4.46068 13.5083,-0.25263 21.7284,-0.79772 22.4172,-1.48653 0.7835,-0.7835 0.5515,-1.25442 -0.8296,-1.68414 -7.6451,-2.37869 -15.5641,-9.22155 -21.7251,-18.77268 -2.5058,-3.88473 -2.4488,-11.05794 0.143,-17.98515 1.1907,-3.18243 2.1649,-6.78959 2.1649,-8.01591 0,-1.22631 -1.9621,-4.4726 -4.3602,-7.21398 -4.6461,-5.31126 -9.6181,-14.32594 -11.6543,-21.13042 -1.0911,-3.6462 -0.9754,-5.02564 0.9551,-11.38132 2.8953,-9.53203 2.2159,-10.1419 -7.1614,-6.42862 -6.1335,2.42881 -8.4203,4.06686 -14.5292,10.40733 -3.9875,4.13866 -7.25,7.89 -7.25,8.3363 0,0.44631 -1.5051,3.16441 -3.3448,6.04022 -3.6469,5.70105 -4.9914,11.57244 -4.9635,21.67518 0.026,9.55485 1.9103,14.08215 6.8083,16.36131 7.1456,3.32506 16.5,10.04606 16.5,11.85507 0,1.82293 -4.7064,4.78362 -7.6042,4.78362 -3.1249,0 -14.833,-7.311 -19.9174,-12.43718 -2.7618,-2.78455 -6.4743,-7.27747 -8.25,-9.98426 -2.9064,-4.43052 -3.2284,-5.66234 -3.2284,-12.34879 0,-6.95392 -0.1902,-7.60498 -2.9833,-10.21413 -6.1596,-5.75399 -17.1932,-5.09766 -26.6506,1.58531 -10.5262,7.43819 -15.661,15.46471 -17.3454,27.11405 -2.3278,16.09849 -0.6243,20.9878 10.5811,30.37026 4.1006,3.43344 7.2939,6.73135 7.0964,7.32868 -0.1976,0.59733 -2.2057,1.48122 -4.4626,1.96419 -3.6917,0.79004 -4.7654,0.51419 -10.7039,-2.75 -7.5308,-4.13946 -10.2704,-4.43461 -15.3955,-1.65868 -1.9999,1.0832 -6.1482,3.05006 -9.2185,4.3708 -7.2584,3.12237 -16.7377,10.53188 -20.7423,16.21323 -1.7465,2.47775 -3.1754,4.95976 -3.1754,5.51559 0,0.55584 -0.8872,2.74965 -1.9715,4.87514 -2.3167,4.54112 -5.369,18.40893 -4.5906,20.85719 0.669,2.10411 5.3137,7.1986 6.5631,7.1986 0.5061,0 1.4092,-0.5625 2.0069,-1.25 z m -16.9215,-30.19379 c 2.4278,-5.1436 11.9041,-15.33457 18.4306,-19.82049 6.3691,-4.37766 18.2709,-10.08185 25.8484,-12.38837 3.226,-0.98195 6.0805,-2.34584 6.3434,-3.03086 0.2629,-0.68503 -0.4529,-2.5527 -1.5905,-4.15039 -2.8655,-4.02413 -4.1602,-7.68393 -5.1571,-14.57721 -1.2587,-8.70377 -1.9673,-9.11988 -12.0879,-7.09845 -5.1779,1.03419 -9.8998,2.68724 -12.3733,4.33164 -2.2,1.46257 -5.2205,3.27392 -6.7123,4.02522 -1.4918,0.75131 -5.7726,4.35551 -9.5129,8.00935 -10.6383,10.3923 -16.1809,23.88153 -14.7261,35.83969 0.7164,5.88875 2.4506,10.38721 5.2237,13.55013 1.9491,2.22308 3.646,0.96258 6.314,-4.69026 z m 96.1136,-9.75621 c -0.9333,-0.93333 -1.4667,-0.93333 -2.4,0 -0.9333,0.93333 -0.6667,1.2 1.2,1.2 1.8667,0 2.1333,-0.26667 1.2,-1.2 z m 25.8,-2.70983 c 2.4184,-0.68728 2.3905,-0.73286 -0.8523,-1.39578 -1.8438,-0.37692 -5.2188,-0.3706 -7.5,0.014 -4.1082,0.6927 -4.1191,0.70583 -1.1477,1.37715 3.8929,0.8795 6.4171,0.88072 9.5,0.005 z m 40.0552,-1.88086 c 8.5553,-0.49053 16.3898,-1.35895 17.4099,-1.92983 1.7899,-1.0017 1.7857,-1.07488 -0.1205,-2.09508 -2.7159,-1.45346 -27.7401,-1.64913 -33.6857,-0.26339 -2.6627,0.62057 -6.4476,1.79953 -8.4111,2.61992 -1.9635,0.82038 -4.4299,1.21865 -5.481,0.88504 -2.2416,-0.71144 -7.0511,0.30507 -6.4032,1.35335 0.539,0.87203 15.6299,0.63759 36.6916,-0.57001 z m 35.674,-3.81348 c -0.3323,-0.33229 -1.1948,-0.36781 -1.9167,-0.0789 -0.7977,0.31922 -0.5608,0.55618 0.6042,0.60416 1.0541,0.0434 1.6448,-0.19293 1.3125,-0.52522 z m -280.2646,-3.02062 c 0.8955,-0.34364 2.7392,-2.81727 4.0971,-5.49696 2.8966,-5.71622 12.7073,-16.84169 18.643,-21.14151 7.4458,-5.39369 14.2231,-7.85326 24.9067,-9.03892 8.2845,-0.91942 11.3091,-0.84787 17.5048,0.41407 4.1194,0.83904 7.7007,1.18441 7.9584,0.76747 0.2576,-0.41693 -1.6413,-4.80046 -4.2199,-9.74119 l -4.6884,-8.98313 1.0613,-9.32752 c 1.8509,-16.26783 6.2404,-24.899 19.2578,-37.86695 7.2608,-7.23313 9.858,-9.12235 16.0867,-11.70138 8.528,-3.5311 18.0472,-5.11909 32.7327,-5.46044 8.171,-0.18993 10.4966,0.0649 11.2313,1.23086 0.6435,1.02121 0.4157,1.85225 -0.7459,2.72039 -1.6218,1.21217 -2.7309,1.37042 -12.2902,1.75362 -4.9044,0.1966 -10.7433,2.07653 -21.3851,6.88522 -9.4432,4.26711 -11.5427,5.99554 -18.4085,15.15506 -5.4882,7.32176 -6.1347,8.74404 -8.108,17.8388 -1.1794,5.43548 -2.3922,10.28363 -2.695,10.77367 -0.8634,1.39689 3.4312,13.28898 5.6648,15.68643 2.4887,2.67133 3.6132,2.67463 14.6028,0.0429 6.8741,-1.64614 10.6487,-1.98955 17.0472,-1.55092 9.3041,0.63783 8.8791,0.92407 14.6727,-9.88176 2.4494,-4.56843 12.5317,-14.50463 20.0485,-19.75801 1.4204,-0.99275 3.6663,-3.94345 4.9907,-6.5571 l 2.4081,-4.7521 -2.6896,-4.4429 c -1.4792,-2.4436 -3.2428,-6.04985 -3.9191,-8.0139 -1.7887,-5.19524 -1.4807,-15.79168 0.5685,-19.55295 4.5923,-8.42904 5.8069,-10.14123 9.6063,-13.54208 5.1029,-4.56756 4.1924,-6.04728 -3.1833,-5.17373 -2.8716,0.34009 -5.221,1.01098 -5.221,1.49087 0,0.47989 -1.7092,0.59921 -3.7983,0.26516 -2.8102,-0.44938 -4.1426,-0.19234 -5.1224,0.98818 -0.7283,0.87754 -2.114,1.59554 -3.0793,1.59554 -0.9653,0 -2.3237,0.68516 -3.0187,1.52258 -0.7312,0.88106 -2.0489,1.27334 -3.1274,0.93105 -1.1808,-0.37476 -2.0844,-0.0166 -2.4658,0.97742 -0.6594,1.71825 -3.3881,2.17648 -3.3881,0.56895 0,-1.86872 -3.1845,-1.01042 -3.7102,1 -0.2877,1.1 -1.344,2 -2.3474,2 -1.0034,0 -2.1025,0.45 -2.4424,1 -0.3399,0.55 -1.7586,1 -3.1526,1 -1.7279,0 -2.7081,0.66349 -3.0798,2.08453 -0.365,1.39595 -0.7883,1.69097 -1.2814,0.89311 -0.9616,-1.55584 -6.9264,-0.29708 -7.6608,1.61666 -0.2966,0.77313 -1.5681,1.4057 -2.8254,1.4057 -1.2573,0 -2.545,0.675 -2.8616,1.5 -0.3166,0.825 -1.7147,1.5 -3.107,1.5 -1.3923,0 -2.5314,0.46412 -2.5314,1.03138 0,0.56727 -0.7875,1.29721 -1.75,1.62211 -5.6582,1.90995 -9.25,3.9087 -9.25,5.14737 0,0.99458 -0.7129,1.23702 -2.3957,0.81466 -1.622,-0.40708 -2.5808,-0.1191 -2.9687,0.8916 -0.315,0.82108 -1.4711,1.49288 -2.569,1.49288 -1.0979,0 -2.4779,0.9 -3.0666,2 -0.5887,1.1 -1.7137,2 -2.5,2 -0.7863,0 -1.9113,0.9 -2.5,2 -0.5887,1.1 -1.9545,2 -3.0352,2 -1.0806,0 -1.9648,0.37421 -1.9648,0.83159 0,0.45737 -2.198,2.25584 -4.8844,3.99659 -2.8813,1.86698 -5.5663,4.60182 -6.547,6.66842 -0.9143,1.92687 -2.0853,3.5034 -2.6021,3.5034 -1.7661,0 -7.9123,7.49566 -7.9394,9.68261 -0.017,1.3544 -0.8597,2.44687 -2.2213,2.87902 -2.4576,0.78003 -5.7217,4.27923 -5.7725,6.18837 -0.018,0.6875 -0.4944,1.25 -1.058,1.25 -0.5637,0 -1.4525,1.125 -1.9753,2.5 -0.5228,1.375 -1.615,2.5 -2.4272,2.5 -1.4828,0 -7.5728,7.95783 -7.5728,9.89538 0,0.56926 -1.35,2.57259 -3,4.45184 -1.65,1.87924 -3,3.90953 -3,4.51174 0,0.60221 -1.1303,1.83553 -2.5117,2.74069 -1.3815,0.90517 -2.7948,2.77319 -3.1406,4.15117 -0.3459,1.37797 -2.8156,4.70369 -5.4883,7.39048 -2.6726,2.6868 -4.8594,5.7888 -4.8594,6.89333 0,1.15076 -1.0273,2.4763 -2.4059,3.10444 -1.3232,0.6029 -3.2255,2.61826 -4.2274,4.47856 -1.0018,1.8603 -2.1388,3.38237 -2.5267,3.38237 -0.3879,0 -0.9754,0.85141 -1.3057,1.89203 -0.3303,1.04062 -1.4856,2.12349 -2.5674,2.40638 -1.0818,0.28289 -1.9669,1.00648 -1.9669,1.60797 0,1.18256 12.6086,1.5648 15.4646,0.46883 z m 408.3785,-121.8202 c -1.2761,-2.80069 -3.8431,-4.19026 -3.8431,-2.08033 0,1.11677 3.5409,4.52532 4.7011,4.52532 0.1408,0 -0.2453,-1.10024 -0.858,-2.44499 z m -23.0625,-27.30501 c -0.2123,-0.4125 -1.1127,-2.33414 -2.0008,-4.2703 -1.4155,-3.08601 -5.7798,-8.19076 -5.7798,-6.76041 0,2.01533 3.3571,9.50926 4.7175,10.53071 1.8351,1.37793 3.6691,1.67729 3.0631,0.5 z m -13.2019,-26.70594 c -1.4183,-2.42011 -2.5787,-5.10167 -2.5787,-5.95902 0,-0.85734 -3.8268,-9.14677 -8.504,-18.42094 -11.711,-23.22101 -18.6106,-30.83441 -36.7656,-40.56903 -7.5783,-4.06345 -12.5277,-6.01349 -30.8031,-12.13639 -2.5149,-0.8426 -5.252,-1.2713 -6.0824,-0.95266 -0.8304,0.31865 -3.3878,0.15739 -5.6832,-0.35835 -2.6475,-0.59487 -4.3907,-0.58615 -4.7677,0.0238 -0.3268,0.52885 -0.379,1.17685 -0.1158,1.43999 1.0186,1.0186 13.5846,5.18953 17.7602,5.89499 2.4179,0.40849 6.0894,1.81164 8.159,3.11811 2.0696,1.30647 4.1776,2.3754 4.6845,2.3754 1.5664,0 18.3931,13.42969 24.6684,19.6883 13.6282,13.59188 21.3249,22.01662 23.1243,25.3117 1.9955,3.65419 15.6614,24.46346 17.6696,26.90573 2.4256,2.95001 1.8402,-1.91542 -0.7655,-6.36167 z m 327.96404,277.52504 c -0.3164,-0.512 -0.118,-1.21356 0.441,-1.55902 0.559,-0.34546 1.0163,0.0734 1.0163,0.9309 0,1.75658 -0.6001,2.01518 -1.4573,0.62812 z"
       id="path4886"
       inkscape:connector-curvature="0" />
  </g>
</svg>
